<svg width="353" height="400" viewBox="0 0 353 400" fill="none" xmlns="http://www.w3.org/2000/svg">
<path d="M352.7 0L320.568 359.958L176.134 400L32.0978 360.015L0 0H352.7Z" fill="#264DE4"/>
<path d="M293.059 337.037L320.518 29.4363H176.35V369.394L293.059 337.037Z" fill="#2965F1"/>
<path d="M73.5835 162.961L77.5409 207.115H176.35V162.961H73.5835Z" fill="#EBEBEB"/>
<path d="M176.35 73.5911H176.197H65.6318L69.6456 117.746H176.35V73.5911Z" fill="#EBEBEB"/>
<path d="M176.35 323.573V277.634L176.156 277.685L126.981 264.407L123.838 229.192H99.9425H79.5137L85.6997 298.521L176.146 323.629L176.35 323.573Z" fill="#EBEBEB"/>
<path d="M230.568 207.114L225.443 264.379L176.197 277.671V323.608L266.716 298.521L267.38 291.061L277.756 174.817L278.833 162.961L286.804 73.5911H176.197V117.746H238.415L234.397 162.961H176.197V207.114H230.568Z" fill="white"/>
</svg>
