<svg width="430" height="400" viewBox="0 0 430 400" fill="none" xmlns="http://www.w3.org/2000/svg">
<g clip-path="url(#clip0_59_97)">
<path d="M270 190L100 160V381.67C100 391.793 108.207 400 118.33 400H411.67C421.793 400 430 391.793 430 381.67V300L270 190Z" fill="#185C37"/>
<path d="M270 0H118.33C108.207 0 100 8.20657 100 18.33V100L270 200L360 230L430 200V100L270 0Z" fill="#21A366"/>
<path d="M100 100H270V200H100V100Z" fill="#107C41"/>
<path opacity="0.1" d="M221.67 80H100V330H221.67C231.78 329.967 239.967 321.78 240 311.67V98.33C239.967 88.2203 231.78 80.0329 221.67 80Z" fill="black"/>
<path opacity="0.2" d="M211.67 90H100V340H211.67C221.78 339.967 229.967 331.78 230 321.67V108.33C229.967 98.2203 221.78 90.0329 211.67 90Z" fill="black"/>
<path opacity="0.2" d="M211.67 90H100V320H211.67C221.78 319.967 229.967 311.78 230 301.67V108.33C229.967 98.2203 221.78 90.0329 211.67 90Z" fill="black"/>
<path opacity="0.2" d="M201.67 90H100V320H201.67C211.78 319.967 219.967 311.78 220 301.67V108.33C219.967 98.2203 211.78 90.0329 201.67 90Z" fill="black"/>
<path d="M18.33 90H201.67C211.793 90 220 98.2066 220 108.33V291.67C220 301.793 211.793 310 201.67 310H18.33C8.20657 310 0 301.793 0 291.67V108.33C0 98.2066 8.20657 90 18.33 90Z" fill="url(#paint0_linear_59_97)"/>
<path d="M56.77 259.58L95.33 199.83L60.0001 140.41H88.42L107.7 178.41C109.48 182.02 110.7 184.7 111.36 186.47H111.61C112.877 183.59 114.21 180.793 115.61 178.08L136.22 140.43H162.31L126.08 199.5L163.23 259.58H135.47L113.2 217.87C112.151 216.095 111.261 214.231 110.54 212.3H110.21C109.558 214.192 108.692 216.004 107.63 217.7L84.7002 259.58H56.77Z" fill="white"/>
<path d="M411.67 0H270V100H430V18.33C430 8.20657 421.793 0 411.67 0Z" fill="#33C481"/>
<path d="M270 200H430V300H270V200Z" fill="#107C41"/>
</g>
<defs>
<linearGradient id="paint0_linear_59_97" x1="38.2184" y1="75.6773" x2="181.782" y2="324.323" gradientUnits="userSpaceOnUse">
<stop stop-color="#18884F"/>
<stop offset="0.5" stop-color="#117E43"/>
<stop offset="1" stop-color="#0B6631"/>
</linearGradient>
<clipPath id="clip0_59_97">
<rect width="430" height="400" fill="white"/>
</clipPath>
</defs>
</svg>
