<svg width="354" height="400" viewBox="0 0 354 400" fill="none" xmlns="http://www.w3.org/2000/svg">
<path d="M1.18481 0L1.24035 4.44278C1.27095 6.88631 8.35024 87.79 16.9723 184.228L32.6487 359.57L103.107 379.297C141.859 390.147 174.365 399.079 175.342 399.148C176.319 399.216 209.255 390.374 248.532 379.499C311.504 362.062 320.005 359.436 320.456 357.278C321.084 354.271 351.922 6.38769 351.891 2.66567L351.868 0H176.526H1.18481Z" fill="white"/>
<path d="M103.665 380.478L32.5804 360.608L31.6515 355.35C30.8257 350.677 0 6.38363 0 1.83455C0 0.188138 17.9983 0.0012207 176.527 0.0012207C343.863 0.0012207 353.052 0.109152 353.04 2.07452C352.984 10.5632 321.077 359.415 320.293 360.11C319.302 360.987 181.716 399.318 177.119 399.997C175.816 400.19 142.761 391.406 103.665 380.478ZM221.349 310.27C245.242 303.681 265.135 297.949 265.556 297.534C265.977 297.119 268.773 268.79 271.769 234.58C274.765 200.371 277.518 170.115 277.888 167.346L278.56 162.311H226.951H175.342V184.229V206.146H203.206H231.07L230.516 208.812C230.211 210.278 229.026 222.877 227.882 236.81C226.671 251.573 225.234 262.712 224.439 263.507C223.689 264.257 212.335 267.733 199.209 271.232L175.342 277.593V299.922C175.342 315.163 175.749 322.251 176.625 322.251C177.331 322.251 197.457 316.86 221.349 310.27V310.27ZM277.88 134.766C277.097 128.96 270.121 51.0966 270.121 48.1607C270.121 46.3775 266.02 46.2062 223.324 46.2062H176.527V69.1254V92.0445L197.556 92.8551C209.122 93.3009 221.294 93.9793 224.605 94.3627L230.625 95.0599L232.087 112.988C232.89 122.848 233.848 132.914 234.215 135.358L234.882 139.801H256.721H278.56L277.88 134.766Z" fill="#EAEBEC"/>
<path d="M103.107 379.297L32.6491 359.57L16.9726 184.228C8.3505 87.7904 1.27104 6.88729 1.24044 4.44376L1.18481 0.000976562H176.527H351.869L351.891 2.66665C351.923 6.38867 321.084 354.272 320.456 357.279C320.005 359.437 311.504 362.064 248.532 379.5C209.255 390.375 176.319 399.217 175.342 399.149C174.365 399.08 141.859 390.147 103.107 379.297H103.107ZM221.403 311.108C245.759 304.336 266.032 298.237 266.455 297.553C266.877 296.87 269.787 267.093 272.921 231.384C276.054 195.674 278.875 165.524 279.189 164.384C279.727 162.425 275.583 162.311 204.093 162.311H128.428L131.649 128.249C133.421 109.516 134.914 94.1395 134.966 94.0802C135.018 94.0209 146.123 93.6667 159.644 93.293C181.814 92.6803 227.534 94.4489 229.064 95.9785C229.635 96.5499 233.394 133.431 233.394 138.466C233.394 140.949 233.729 140.985 256.351 140.985H279.308L278.767 135.95C278.47 133.181 276.525 111.722 274.446 88.2643L270.665 45.6136L182.13 45.3098C111.695 45.0682 93.5927 45.3104 93.585 46.4946C93.5788 47.3132 93.0634 52.5147 92.4378 58.0533C90.9239 71.4559 79.3778 200.953 79.3778 204.53V207.331H154.713H230.048L229.377 211.774C229.007 214.217 227.836 226.613 226.774 239.319C225.712 252.025 224.502 262.75 224.084 263.151C222.98 264.21 178.661 276.05 175.898 276.024C174.615 276.011 163.169 273.156 150.462 269.677L127.36 263.354L126.513 253.41C126.047 247.94 125.338 240.133 124.937 236.061L124.209 228.656H101.794H79.3778L79.4275 233.099C79.5202 241.408 84.9079 297.373 85.6903 298.155C86.5952 299.06 172.691 323.261 175.342 323.356C176.319 323.391 197.047 317.879 221.403 311.108H221.403Z" fill="#F0BE25"/>
<path d="M103.107 379.297L32.6491 359.57L16.9726 184.228C8.3505 87.7904 1.27104 6.88729 1.24044 4.44376L1.18481 0.000976562H176.527H351.869L351.891 2.66665C351.923 6.38867 321.084 354.272 320.456 357.279C320.005 359.437 311.504 362.064 248.532 379.5C209.255 390.375 176.319 399.217 175.342 399.149C174.365 399.08 141.859 390.147 103.107 379.297H103.107ZM234.502 352.906C265.496 344.354 291.436 336.757 292.148 336.024C293.255 334.883 320.024 41.5079 319.916 31.6928L319.881 28.4348H248.204H176.527V36.728V45.0212H135.061C102.683 45.0212 93.5926 45.3458 93.585 46.5021C93.5788 47.3166 93.0634 52.5147 92.4378 58.0533C90.9239 71.4559 79.3778 200.953 79.3778 204.53V207.331H127.952H176.527V241.688C176.527 268.397 176.197 276.041 175.046 276.024C174.231 276.011 163.169 273.156 150.462 269.677L127.36 263.354L126.513 253.41C126.047 247.94 125.338 240.133 124.937 236.061L124.209 228.656H101.794H79.3778L79.4275 233.099C79.5694 245.807 85.0667 297.679 86.356 298.475C87.1396 298.96 107.749 304.882 132.154 311.635L176.527 323.914V346.185C176.527 358.434 176.892 368.456 177.338 368.456C177.784 368.456 203.508 361.459 234.502 352.906ZM131.525 128.568C133.228 110.009 134.854 94.6147 135.137 94.358C135.421 94.1013 144.85 93.6368 156.09 93.3258L176.527 92.7604V127.536V162.311H152.477H128.428L131.525 128.568Z" fill="#E4A126"/>
</svg>
