<svg width="400" height="400" viewBox="0 0 400 400" fill="none" xmlns="http://www.w3.org/2000/svg">
<g clip-path="url(#clip0_59_49)">
<g style="mix-blend-mode:multiply" opacity="0.2">
<path d="M124.563 306.25C120.16 306.297 115.894 307.787 112.42 310.49C108.945 313.194 106.452 316.963 105.325 321.219C104.197 325.475 104.496 329.983 106.176 334.053C107.855 338.122 110.824 341.529 114.625 343.75L185.625 384C191.473 387.324 198.086 389.069 204.813 389.062C208.432 389.06 212.032 388.534 215.5 387.5L322.313 357.063C330.28 354.773 337.288 349.958 342.281 343.341C347.275 336.724 349.984 328.665 350 320.375V306.25H124.563Z" fill="white"/>
</g>
<g style="mix-blend-mode:multiply" opacity="0.12">
<path d="M124.563 306.25C120.16 306.297 115.894 307.787 112.42 310.49C108.945 313.194 106.452 316.963 105.325 321.219C104.197 325.475 104.496 329.983 106.176 334.053C107.855 338.122 110.824 341.529 114.625 343.75L185.625 384C191.473 387.324 198.086 389.069 204.813 389.062C208.432 389.06 212.032 388.534 215.5 387.5L322.313 357.063C330.28 354.773 337.288 349.958 342.281 343.341C347.275 336.724 349.984 328.665 350 320.375V306.25H124.563Z" fill="white"/>
</g>
<path d="M215.062 12.5L243.75 78.125V306.25L215.5 387.5L322.312 357.063C330.28 354.773 337.288 349.958 342.281 343.341C347.275 336.724 349.984 328.665 350 320.375V79.625C350.004 71.3141 347.296 63.2289 342.288 56.5965C337.28 49.9641 330.244 45.1465 322.25 42.875L215.062 12.5Z" fill="url(#paint0_linear_59_49)"/>
<path d="M79.6251 303.813L110.875 286.938C115.161 284.582 118.734 281.117 121.219 276.905C123.704 272.693 125.01 267.89 125 263V140.188C125.006 134.593 126.729 129.136 129.937 124.553C133.145 119.97 137.683 116.483 142.938 114.563L243.75 78.1251V50.4376C243.738 41.8561 240.932 33.5118 235.756 26.667C230.581 19.8222 223.316 14.8491 215.063 12.5001C211.548 11.4907 207.907 10.9857 204.25 11.0001V11.0001C197.372 11.0158 190.613 12.8023 184.625 16.1876L69.2501 82.0001C63.4036 85.3315 58.543 90.1509 55.162 95.9689C51.781 101.787 50 108.396 50.0001 115.125V286.125C49.9913 289.605 50.8881 293.028 52.6024 296.057C54.3167 299.086 56.7895 301.617 59.7779 303.401C62.7662 305.186 66.1673 306.162 69.6471 306.234C73.1268 306.306 76.5654 305.471 79.6251 303.813V303.813Z" fill="url(#paint1_linear_59_49)"/>
<path d="M243.75 306.25H124.563C120.16 306.297 115.894 307.787 112.42 310.49C108.945 313.194 106.452 316.963 105.325 321.219C104.197 325.475 104.496 329.983 106.176 334.053C107.855 338.122 110.824 341.529 114.625 343.75L185.625 384C191.473 387.324 198.086 389.069 204.813 389.062V389.062C208.432 389.06 212.032 388.534 215.5 387.5C223.653 385.184 230.826 380.266 235.925 373.496C241.025 366.727 243.773 358.476 243.75 350V306.25Z" fill="url(#paint2_linear_59_49)"/>
<path d="M79.6251 303.813L110.875 286.938C115.161 284.582 118.734 281.117 121.219 276.905C123.704 272.693 125.01 267.89 125 263V140.188C125.006 134.593 126.729 129.136 129.937 124.553C133.145 119.97 137.683 116.483 142.938 114.563L243.75 78.1251V50.4376C243.738 41.8561 240.932 33.5118 235.756 26.667C230.581 19.8222 223.316 14.8491 215.063 12.5001C211.548 11.4907 207.907 10.9857 204.25 11.0001V11.0001C197.372 11.0158 190.613 12.8023 184.625 16.1876L69.2501 82.0001C63.4036 85.3315 58.543 90.1509 55.162 95.9689C51.781 101.787 50 108.396 50.0001 115.125V286.125C49.9913 289.605 50.8881 293.028 52.6024 296.057C54.3167 299.086 56.7895 301.617 59.7779 303.401C62.7662 305.186 66.1673 306.162 69.6471 306.234C73.1268 306.306 76.5654 305.471 79.6251 303.813V303.813Z" fill="url(#paint3_linear_59_49)"/>
<path d="M243.75 306.25H124.563C120.16 306.297 115.894 307.787 112.42 310.49C108.945 313.194 106.452 316.963 105.325 321.219C104.197 325.475 104.496 329.983 106.176 334.053C107.855 338.122 110.824 341.529 114.625 343.75L185.625 384C191.473 387.324 198.086 389.069 204.813 389.062V389.062C208.432 389.06 212.032 388.534 215.5 387.5C223.653 385.184 230.826 380.266 235.925 373.496C241.025 366.727 243.773 358.476 243.75 350V306.25Z" fill="url(#paint4_linear_59_49)"/>
</g>
<defs>
<linearGradient id="paint0_linear_59_49" x1="282.5" y1="-8.875" x2="282.5" y2="361.25" gradientUnits="userSpaceOnUse">
<stop stop-color="#FFB900"/>
<stop offset="0.17" stop-color="#EF8400"/>
<stop offset="0.31" stop-color="#E25C01"/>
<stop offset="0.43" stop-color="#DB4401"/>
<stop offset="0.5" stop-color="#D83B01"/>
</linearGradient>
<linearGradient id="paint1_linear_59_49" x1="215.75" y1="4.18756" x2="19.7501" y2="284.063" gradientUnits="userSpaceOnUse">
<stop stop-color="#800600"/>
<stop offset="0.6" stop-color="#C72127"/>
<stop offset="0.73" stop-color="#C13959"/>
<stop offset="0.85" stop-color="#BC4B81"/>
<stop offset="0.94" stop-color="#B95799"/>
<stop offset="1" stop-color="#B85BA2"/>
</linearGradient>
<linearGradient id="paint2_linear_59_49" x1="115.625" y1="347.687" x2="371.5" y2="347.687" gradientUnits="userSpaceOnUse">
<stop stop-color="#F32B44"/>
<stop offset="0.6" stop-color="#A4070A"/>
</linearGradient>
<linearGradient id="paint3_linear_59_49" x1="219.75" y1="-1.49995" x2="178.25" y2="57.7501" gradientUnits="userSpaceOnUse">
<stop stop-opacity="0.4"/>
<stop offset="1" stop-opacity="0"/>
</linearGradient>
<linearGradient id="paint4_linear_59_49" x1="289.5" y1="353.437" x2="174.938" y2="343.437" gradientUnits="userSpaceOnUse">
<stop stop-opacity="0.4"/>
<stop offset="1" stop-opacity="0"/>
</linearGradient>
<clipPath id="clip0_59_49">
<rect width="400" height="400" fill="white"/>
</clipPath>
</defs>
</svg>
