<svg width="400" height="400" viewBox="0 0 400 400" fill="none" xmlns="http://www.w3.org/2000/svg">
<g clip-path="url(#clip0_59_63)">
<mask id="mask0_59_63" style="mask-type:alpha" maskUnits="userSpaceOnUse" x="-1" y="7" width="401" height="386">
<path d="M6.07157 183.538C-2.17587 192.963 -2.17588 207.037 6.07157 216.463L154.124 385.665C160.764 393.254 172.57 393.254 179.21 385.665L195.153 367.444L212.71 386.597C219.316 393.803 230.676 393.803 237.282 386.597L392.844 216.893C401.606 207.335 401.606 192.665 392.844 183.107L237.282 13.4029C230.676 6.19676 219.316 6.19676 212.71 13.4029L195.153 32.556L179.21 14.3349C172.57 6.74609 160.764 6.74609 154.124 14.3349L6.07157 183.538Z" fill="white"/>
</mask>
<g mask="url(#mask0_59_63)">
<path d="M166.667 400L-8.33325 200L166.667 0L341.667 200L166.667 400Z" fill="url(#paint0_linear_59_63)"/>
<g filter="url(#filter0_f_59_63)">
<path d="M224.996 8.33325L408.329 208.333L224.996 408.333L143.653 319.595C137.812 313.223 137.812 303.443 143.653 297.071L214.673 219.595C220.513 213.223 220.513 203.443 214.673 197.071L143.653 119.595C137.812 113.223 137.812 103.443 143.653 97.0712L224.996 8.33325Z" fill="black" fill-opacity="0.32"/>
</g>
<g filter="url(#filter1_f_59_63)">
<path d="M224.996 1.58398L408.329 201.584L224.996 401.584L143.653 312.846C137.812 306.474 137.812 296.694 143.653 290.322L214.673 212.846C220.513 206.474 220.513 196.694 214.673 190.322L143.653 112.846C137.812 106.474 137.812 96.6939 143.653 90.3218L224.996 1.58398Z" fill="black" fill-opacity="0.24"/>
</g>
<path d="M224.996 0L408.329 200L224.996 400L143.653 311.262C137.812 304.89 137.812 295.11 143.653 288.738L214.673 211.262C220.513 204.89 220.513 195.11 214.673 188.738L143.653 111.262C137.812 104.89 137.812 95.11 143.653 88.7379L224.996 0Z" fill="url(#paint1_linear_59_63)"/>
<path d="M304.381 113.403C310.986 106.197 322.347 106.197 328.953 113.403L408.333 200L328.953 286.597C322.347 293.803 310.986 293.803 304.381 286.597L240.486 216.893C231.724 207.335 231.724 192.665 240.486 183.107L304.381 113.403Z" fill="url(#paint2_linear_59_63)"/>
</g>
</g>
<defs>
<filter id="filter0_f_59_63" x="131.272" y="0.333252" width="285.057" height="416" filterUnits="userSpaceOnUse" color-interpolation-filters="sRGB">
<feFlood flood-opacity="0" result="BackgroundImageFix"/>
<feBlend mode="normal" in="SourceGraphic" in2="BackgroundImageFix" result="shape"/>
<feGaussianBlur stdDeviation="4" result="effect1_foregroundBlur_59_63"/>
</filter>
<filter id="filter1_f_59_63" x="138.512" y="0.823984" width="270.577" height="401.52" filterUnits="userSpaceOnUse" color-interpolation-filters="sRGB">
<feFlood flood-opacity="0" result="BackgroundImageFix"/>
<feBlend mode="normal" in="SourceGraphic" in2="BackgroundImageFix" result="shape"/>
<feGaussianBlur stdDeviation="0.38" result="effect1_foregroundBlur_59_63"/>
</filter>
<linearGradient id="paint0_linear_59_63" x1="295.833" y1="400.001" x2="62.5001" y2="-170.832" gradientUnits="userSpaceOnUse">
<stop stop-color="#742774"/>
<stop offset="1" stop-color="#BB35A4"/>
</linearGradient>
<linearGradient id="paint1_linear_59_63" x1="133.333" y1="0.00101577" x2="325" y2="400.001" gradientUnits="userSpaceOnUse">
<stop stop-color="#E48CC7"/>
<stop offset="1" stop-color="#D467B9"/>
</linearGradient>
<linearGradient id="paint2_linear_59_63" x1="258.333" y1="120.834" x2="316.667" y2="300" gradientUnits="userSpaceOnUse">
<stop stop-color="#E9A1CB"/>
<stop offset="1" stop-color="#E48CC7"/>
</linearGradient>
<clipPath id="clip0_59_63">
<rect width="400" height="400" fill="white"/>
</clipPath>
</defs>
</svg>
