<svg width="400" height="400" viewBox="0 0 400 400" fill="none" xmlns="http://www.w3.org/2000/svg">
<g clip-path="url(#clip0_59_78)">
<path d="M334.286 0H228.254C219.137 0 211.746 7.39086 211.746 16.5079V383.492C211.746 392.609 219.137 400 228.254 400H334.286C343.403 400 350.794 392.609 350.794 383.492V16.5079C350.794 7.39086 343.403 0 334.286 0Z" fill="url(#paint0_linear_59_78)"/>
<g filter="url(#filter0_d_59_78)">
<path d="M268.889 383.492V400H252.381H146.349C137.232 400 129.841 392.609 129.841 383.492V116.191C129.841 107.073 137.232 99.6826 146.349 99.6826H252.381C261.498 99.6826 268.889 107.073 268.889 116.191V383.492Z" fill="black"/>
</g>
<path d="M268.889 383.492V400H252.381H146.349C137.232 400 129.841 392.609 129.841 383.492V116.191C129.841 107.073 137.232 99.6826 146.349 99.6826H252.381C261.498 99.6826 268.889 107.073 268.889 116.191V383.492Z" fill="url(#paint1_linear_59_78)"/>
<path fill-rule="evenodd" clip-rule="evenodd" d="M188.254 383.492V400H171.746H65.7142C56.5972 400 49.2063 392.609 49.2063 383.492V216.508C49.2063 207.391 56.5972 200 65.7142 200H171.746C180.863 200 188.254 207.391 188.254 216.508V383.492Z" fill="url(#paint2_linear_59_78)"/>
</g>
<defs>
<filter id="filter0_d_59_78" x="129.841" y="89.6826" width="179.048" height="340.317" filterUnits="userSpaceOnUse" color-interpolation-filters="sRGB">
<feFlood flood-opacity="0" result="BackgroundImageFix"/>
<feColorMatrix in="SourceAlpha" type="matrix" values="0 0 0 0 0 0 0 0 0 0 0 0 0 0 0 0 0 0 127 0" result="hardAlpha"/>
<feOffset dx="20" dy="10"/>
<feGaussianBlur stdDeviation="10"/>
<feColorMatrix type="matrix" values="0 0 0 0 0 0 0 0 0 0 0 0 0 0 0 0 0 0 0.0530212 0"/>
<feBlend mode="normal" in2="BackgroundImageFix" result="effect1_dropShadow_59_78"/>
<feBlend mode="normal" in="SourceGraphic" in2="effect1_dropShadow_59_78" result="shape"/>
</filter>
<linearGradient id="paint0_linear_59_78" x1="281.27" y1="0" x2="281.27" y2="400" gradientUnits="userSpaceOnUse">
<stop stop-color="#EBBB14"/>
<stop offset="1" stop-color="#B25400"/>
</linearGradient>
<linearGradient id="paint1_linear_59_78" x1="199.365" y1="99.6826" x2="199.365" y2="400" gradientUnits="userSpaceOnUse">
<stop stop-color="#F9E583"/>
<stop offset="1" stop-color="#DE9800"/>
</linearGradient>
<linearGradient id="paint2_linear_59_78" x1="118.73" y1="200" x2="118.73" y2="400" gradientUnits="userSpaceOnUse">
<stop stop-color="#F9E68B"/>
<stop offset="1" stop-color="#F3CD32"/>
</linearGradient>
<clipPath id="clip0_59_78">
<rect width="400" height="400" fill="white"/>
</clipPath>
</defs>
</svg>
