<svg width="365" height="400" viewBox="0 0 365 400" fill="none" xmlns="http://www.w3.org/2000/svg">
<g clip-path="url(#clip0_59_86)">
<path d="M163.123 0.00273049C149.509 0.0659912 136.507 1.22713 125.067 3.25146C91.3656 9.20537 85.2467 21.6674 85.2467 44.6495V75.0019H164.887V85.1194H85.2467H55.3584C32.2128 85.1194 11.9457 99.0313 5.60648 125.496C-1.70578 155.832 -2.03012 174.761 5.60648 206.436C11.2676 230.014 24.7871 246.813 47.9328 246.813H75.3149V210.427C75.3149 184.141 98.0586 160.954 125.067 160.954H204.614C226.757 160.954 244.434 142.722 244.434 120.484V44.6495C244.434 23.0666 226.227 6.85357 204.614 3.25146C190.933 0.974081 176.738 -0.0605311 163.123 0.00273049ZM120.055 24.4146C128.281 24.4146 134.999 31.2422 134.999 39.6372C134.999 48.0025 128.281 54.767 120.055 54.767C111.799 54.767 105.11 48.0025 105.11 39.6372C105.11 31.2422 111.799 24.4146 120.055 24.4146Z" fill="url(#paint0_linear_59_86)"/>
<path d="M254.366 85.1194V120.484C254.366 147.902 231.121 170.979 204.614 170.979H125.067C103.278 170.979 85.2468 189.627 85.2468 211.448V287.283C85.2468 308.866 104.015 321.561 125.067 327.753C150.277 335.166 174.451 336.505 204.614 327.753C224.664 321.948 244.434 310.265 244.434 287.283V256.931H164.887V246.813H244.434H284.255C307.4 246.813 316.025 230.669 324.075 206.436C332.389 181.489 332.036 157.499 324.075 125.496C318.355 102.455 307.43 85.1194 284.255 85.1194H254.366ZM209.627 277.166C217.882 277.166 224.571 283.93 224.571 292.295C224.571 300.69 217.882 307.518 209.627 307.518C201.4 307.518 194.683 300.69 194.683 292.295C194.683 283.93 201.4 277.166 209.627 277.166Z" fill="url(#paint1_linear_59_86)"/>
<path opacity="0.44382" d="M165.791 400C224.733 400 272.515 390.735 272.515 379.305C272.515 367.876 224.733 358.61 165.791 358.61C106.848 358.61 59.0662 367.876 59.0662 379.305C59.0662 390.735 106.848 400 165.791 400Z" fill="url(#paint2_radial_59_86)"/>
</g>
<defs>
<linearGradient id="paint0_linear_59_86" x1="-9.91726e-07" y1="-8.61485e-07" x2="183.642" y2="156.488" gradientUnits="userSpaceOnUse">
<stop stop-color="#5A9FD4"/>
<stop offset="1" stop-color="#306998"/>
</linearGradient>
<linearGradient id="paint1_linear_59_86" x1="207.713" y1="289.744" x2="141.829" y2="197.421" gradientUnits="userSpaceOnUse">
<stop stop-color="#FFD43B"/>
<stop offset="1" stop-color="#FFE873"/>
</linearGradient>
<radialGradient id="paint2_radial_59_86" cx="0" cy="0" r="1" gradientUnits="userSpaceOnUse" gradientTransform="translate(165.791 379.305) rotate(-90) scale(20.6948 90.9623)">
<stop stop-color="#B8B8B8" stop-opacity="0.498039"/>
<stop offset="1" stop-color="#7F7F7F" stop-opacity="0"/>
</radialGradient>
<clipPath id="clip0_59_86">
<rect width="364.631" height="400" fill="white"/>
</clipPath>
</defs>
</svg>
