<svg width="267" height="400" viewBox="0 0 267 400" fill="none" xmlns="http://www.w3.org/2000/svg">
<path d="M139.28 0.037862C125.486 -0.274045 111.236 1.33819 96.6425 4.98476C29.1575 21.8419 -46.3839 108.653 36.102 208.75L85.3354 268.348L99.2338 285.309C108.562 296.399 123.827 296.201 135.04 286.958C146.309 277.667 149.513 262.431 140.222 251.152C140.21 251.136 136.283 246.382 134.569 244.32H134.804C131.246 240.039 130.473 239.321 126.795 234.898C108.977 213.468 88.6333 188.727 88.6333 188.727C52.8178 145.26 68.7986 91.5601 117.372 61.0496C160.17 34.1667 238.708 43.7684 265.779 87.9041C248.73 37.5818 199.054 1.38946 139.28 0.037862ZM149.174 105.1C142.81 104.884 136.166 107.31 130.564 111.932C119.276 121.232 116.1 136.487 125.382 147.738C125.4 147.766 126.522 149.161 128.444 151.507C149.795 177.159 178.149 211.576 178.149 211.576C213.973 255.043 197.983 308.507 149.409 339.018C106.621 365.891 28.0739 356.271 1.00259 312.163C21.9868 374.07 92.3176 414.54 170.139 395.083C237.643 378.197 313.166 291.631 230.68 191.553L172.966 121.826L166.37 113.581C161.706 108.036 155.538 105.317 149.174 105.1Z" fill="#007CC2"/>
</svg>
